<svg xmlns="http://www.w3.org/2000/svg" viewBox="0 0 64 64">
  <rect width="64" height="64" rx="12" fill="#0a0b0d"/>
  <!-- density-ramp triangle: pink (top) fading to raspberry (bottom), apex right -->
  <g>
    <rect x="8" y="12" width="7" height="7" fill="#F06CA0" opacity=".58"/><rect x="16" y="12" width="7" height="7" fill="#F06CA0" opacity=".58"/>
    <rect x="8" y="20" width="7" height="7" fill="#E5588B" opacity=".72"/><rect x="16" y="20" width="7" height="7" fill="#E5588B" opacity=".72"/><rect x="24" y="20" width="7" height="7" fill="#E5588B" opacity=".72"/><rect x="32" y="20" width="7" height="7" fill="#E5588B" opacity=".72"/>
    <rect x="8" y="28" width="7" height="7" fill="#DA4375" opacity=".86"/><rect x="16" y="28" width="7" height="7" fill="#DA4375" opacity=".86"/><rect x="24" y="28" width="7" height="7" fill="#DA4375" opacity=".86"/><rect x="32" y="28" width="7" height="7" fill="#DA4375" opacity=".86"/><rect x="40" y="28" width="7" height="7" fill="#DA4375" opacity=".86"/><rect x="48" y="28" width="7" height="7" fill="#DA4375" opacity=".86"/>
    <rect x="8" y="36" width="7" height="7" fill="#D02F60" opacity=".93"/><rect x="16" y="36" width="7" height="7" fill="#D02F60" opacity=".93"/><rect x="24" y="36" width="7" height="7" fill="#D02F60" opacity=".93"/><rect x="32" y="36" width="7" height="7" fill="#D02F60" opacity=".93"/>
    <rect x="8" y="44" width="7" height="7" fill="#C51A4A"/><rect x="16" y="44" width="7" height="7" fill="#C51A4A"/>
  </g>
</svg>
